<svg width="150" height="150" viewBox="0 0 150 150" fill="none" xmlns="http://www.w3.org/2000/svg">
<g filter="url(#filter0_b_1654_6347)">
<circle cx="75" cy="75" r="74" fill="white" fill-opacity="0.45"/>
<circle cx="75" cy="75" r="73.5" stroke="#CD1719"/>
</g>
<mask id="mask0_1654_6347" style="mask-type:alpha" maskUnits="userSpaceOnUse" x="0" y="0" width="150" height="150">
<circle cx="75" cy="75" r="74" fill="white" fill-opacity="0.45" stroke="white" stroke-width="0.5"/>
</mask>
<g mask="url(#mask0_1654_6347)">
<g filter="url(#filter1_b_1654_6347)">
<path fill-rule="evenodd" clip-rule="evenodd" d="M59.3997 69.3892L62.4154 73.2392L59.8455 75.9292L128.635 181.63L120.253 187.085L52.7485 83.3574L41.5387 95.0904L-40.7003 213.429L-48.9121 207.722L7.07449 127.16C0.775246 113.011 -7.05396 90.8105 -7.05396 87.3971C-7.05396 84.0862 5.46916 47.9031 14.9389 23.121L-17.136 -28.2919L-8.6517 -33.585L40.6835 45.4944L52.9471 61.1512L135.326 -57.3881L143.537 -51.6814L59.3997 69.3892Z" fill="white" fill-opacity="0.65"/>
</g>
</g>
<g filter="url(#filter2_i_1654_6347)">
<circle cx="75.503" cy="74.4966" r="56.381" fill="#CD1719"/>
</g>
<circle cx="75.503" cy="74.4966" r="55.881" stroke="white"/>
<g style="mix-blend-mode:overlay" filter="url(#filter3_f_1654_6347)">
<path d="M73 31L116.301 106H29.6987L73 31Z" fill="white"/>
</g>
<g filter="url(#filter4_b_1654_6347)">
<circle cx="75" cy="75" r="74" stroke="#CD1719" stroke-width="2"/>
</g>
<path d="M40.5584 71.5469C36.9317 71.5469 35.1184 70.3736 35.1184 68.0269V61.8869C35.1184 59.4069 36.9317 58.1669 40.5584 58.1669C44.2251 58.1669 46.0584 59.4003 46.0584 61.8669V68.0269C46.0584 69.2803 45.5517 70.1803 44.5384 70.7269C43.5251 71.2736 42.1984 71.5469 40.5584 71.5469ZM40.5984 70.2469C42.9851 70.2469 44.1784 69.5003 44.1784 68.0069V61.8269C44.1784 60.2269 42.9784 59.4269 40.5784 59.4269C39.4184 59.4269 38.5251 59.6069 37.8984 59.9669C37.2851 60.3269 36.9784 60.9469 36.9784 61.8269V68.0069C36.9784 69.5003 38.1851 70.2469 40.5984 70.2469ZM49.0526 58.3669H50.9926V63.9669H57.8926V58.3669H59.8326V71.3469H57.8926V65.3269H50.9926V71.3469H49.0526V58.3669ZM62.9933 71.3869C62.6866 71.3869 62.3933 71.3669 62.1133 71.3269V69.3869C62.3133 69.4269 62.5066 69.4469 62.6933 69.4469C63.2133 69.4469 63.6466 69.2136 63.9933 68.7469C64.3399 68.2803 64.5999 67.4603 64.7733 66.2869C64.9599 65.1136 65.0533 63.4869 65.0533 61.4069V58.3669H72.8733V71.3469H70.9333V59.7269H66.7533V62.1269C66.7533 65.0336 66.4466 67.3069 65.8333 68.9469C65.2199 70.5736 64.2733 71.3869 62.9933 71.3869ZM80.0201 58.3669H82.2601L87.3001 71.3469H85.2801L83.8001 67.4069H78.2401L76.7801 71.3469H74.8601L80.0201 58.3669ZM83.3201 66.0669L81.1201 60.2069H80.9401L78.7401 66.0669H83.3201ZM89.307 58.3669H91.087V68.8869L98.427 58.3669H100.207V71.3469H98.427V60.6469L91.087 71.3469H89.307V58.3669ZM94.647 56.9869C93.7003 56.9869 92.947 56.7603 92.387 56.3069C91.827 55.8403 91.527 55.2203 91.487 54.4469H92.967C93.087 55.4869 93.647 56.0069 94.647 56.0069C95.647 56.0069 96.207 55.4869 96.327 54.4469H97.807C97.7803 55.2069 97.487 55.8203 96.927 56.2869C96.367 56.7536 95.607 56.9869 94.647 56.9869ZM103.74 58.3669H105.68V63.9669H112.58V58.3669H114.52V71.3469H112.58V65.3269H105.68V71.3469H103.74V58.3669ZM42.4959 94.5469C41.1092 94.5469 39.7159 94.4203 38.3159 94.1669V92.6869C39.9026 93.0203 41.2292 93.1869 42.2959 93.1869C43.2959 93.1869 44.0559 93.0869 44.5759 92.8869C45.0959 92.6736 45.3559 92.2736 45.3559 91.6869V89.5069C45.3559 88.6803 44.4626 88.2669 42.6759 88.2669H39.9759V87.0269H42.3359C44.1359 87.0269 45.0359 86.6003 45.0359 85.7469V83.5669C45.0359 82.8736 44.1692 82.5269 42.4359 82.5269C41.9692 82.5269 41.1892 82.5603 40.0959 82.6269L38.5759 82.7469V81.3869C40.3092 81.2803 41.5892 81.2269 42.4159 81.2269C43.9226 81.2269 45.0359 81.3936 45.7559 81.7269C46.4893 82.0603 46.8559 82.6203 46.8559 83.4069V85.8269C46.8559 86.2403 46.6893 86.5869 46.3559 86.8669C46.0226 87.1336 45.5959 87.3069 45.0759 87.3869V87.4669C45.3959 87.5203 45.6559 87.5803 45.8559 87.6469C46.0692 87.7003 46.2959 87.7869 46.5359 87.9069C47.0026 88.1469 47.2359 88.5669 47.2359 89.1669V91.7669C47.2359 92.8069 46.8159 93.5336 45.9759 93.9469C45.1359 94.3469 43.9759 94.5469 42.4959 94.5469ZM54.2975 81.3669H56.5375L61.5775 94.3469H59.5575L58.0775 90.4069H52.5175L51.0575 94.3469H49.1375L54.2975 81.3669ZM57.5975 89.0669L55.3975 83.2069H55.2175L53.0175 89.0669H57.5975ZM63.5644 81.3669H73.9444V94.3469H72.0044V82.7069H65.5044V94.3469H63.5644V81.3669ZM77.3148 81.3669H79.0948V91.8869L86.4348 81.3669H88.2148V94.3469H86.4348V83.6469L79.0948 94.3469H77.3148V81.3669ZM96.8079 94.5469C93.1679 94.5469 91.3479 93.3736 91.3479 91.0269V84.8669C91.3479 82.3869 93.1679 81.1469 96.8079 81.1469C98.0479 81.1469 99.2346 81.2736 100.368 81.5269V82.9669C99.0879 82.6469 97.9146 82.4869 96.8479 82.4869C96.3279 82.4869 95.8746 82.5203 95.4879 82.5869C95.1013 82.6403 94.7279 82.7403 94.3679 82.8869C93.5946 83.2203 93.2079 83.8736 93.2079 84.8469V90.9269C93.2079 92.4203 94.4479 93.1669 96.9279 93.1669C97.9946 93.1669 99.1679 93.0069 100.448 92.6869V94.1669C99.3146 94.4203 98.1013 94.5469 96.8079 94.5469ZM103.037 81.3669H104.977V86.1669H106.917C107.997 86.1669 108.877 86.2269 109.557 86.3469C110.25 86.4536 110.804 86.7003 111.217 87.0869C111.644 87.4736 111.857 88.0469 111.857 88.8069V91.5269C111.857 93.4069 110.33 94.3469 107.277 94.3469H103.037V81.3669ZM107.137 93.0269C108.07 93.0269 108.77 92.9136 109.237 92.6869C109.717 92.4603 109.957 92.0469 109.957 91.4469V89.0269C109.957 88.6003 109.87 88.2803 109.697 88.0669C109.524 87.8536 109.237 87.7069 108.837 87.6269C108.45 87.5336 107.897 87.4869 107.177 87.4869H104.957V93.0269H107.137Z" fill="white"/>
<defs>
<filter id="filter0_b_1654_6347" x="-5" y="-5" width="160" height="160" filterUnits="userSpaceOnUse" color-interpolation-filters="sRGB">
<feFlood flood-opacity="0" result="BackgroundImageFix"/>
<feGaussianBlur in="BackgroundImageFix" stdDeviation="3"/>
<feComposite in2="SourceAlpha" operator="in" result="effect1_backgroundBlur_1654_6347"/>
<feBlend mode="normal" in="SourceGraphic" in2="effect1_backgroundBlur_1654_6347" result="shape"/>
</filter>
<filter id="filter1_b_1654_6347" x="-59.9121" y="-68.3881" width="214.449" height="292.817" filterUnits="userSpaceOnUse" color-interpolation-filters="sRGB">
<feFlood flood-opacity="0" result="BackgroundImageFix"/>
<feGaussianBlur in="BackgroundImageFix" stdDeviation="5.5"/>
<feComposite in2="SourceAlpha" operator="in" result="effect1_backgroundBlur_1654_6347"/>
<feBlend mode="normal" in="SourceGraphic" in2="effect1_backgroundBlur_1654_6347" result="shape"/>
</filter>
<filter id="filter2_i_1654_6347" x="19.1221" y="18.1156" width="112.762" height="116.762" filterUnits="userSpaceOnUse" color-interpolation-filters="sRGB">
<feFlood flood-opacity="0" result="BackgroundImageFix"/>
<feBlend mode="normal" in="SourceGraphic" in2="BackgroundImageFix" result="shape"/>
<feColorMatrix in="SourceAlpha" type="matrix" values="0 0 0 0 0 0 0 0 0 0 0 0 0 0 0 0 0 0 127 0" result="hardAlpha"/>
<feOffset dy="4"/>
<feGaussianBlur stdDeviation="2"/>
<feComposite in2="hardAlpha" operator="arithmetic" k2="-1" k3="1"/>
<feColorMatrix type="matrix" values="0 0 0 0 0.983333 0 0 0 0 0.581806 0 0 0 0 0.581806 0 0 0 0.25 0"/>
<feBlend mode="normal" in2="shape" result="effect1_innerShadow_1654_6347"/>
</filter>
<filter id="filter3_f_1654_6347" x="2.69922" y="4" width="140.602" height="129" filterUnits="userSpaceOnUse" color-interpolation-filters="sRGB">
<feFlood flood-opacity="0" result="BackgroundImageFix"/>
<feBlend mode="normal" in="SourceGraphic" in2="BackgroundImageFix" result="shape"/>
<feGaussianBlur stdDeviation="13.5" result="effect1_foregroundBlur_1654_6347"/>
</filter>
<filter id="filter4_b_1654_6347" x="-6" y="-6" width="162" height="162" filterUnits="userSpaceOnUse" color-interpolation-filters="sRGB">
<feFlood flood-opacity="0" result="BackgroundImageFix"/>
<feGaussianBlur in="BackgroundImageFix" stdDeviation="3"/>
<feComposite in2="SourceAlpha" operator="in" result="effect1_backgroundBlur_1654_6347"/>
<feBlend mode="normal" in="SourceGraphic" in2="effect1_backgroundBlur_1654_6347" result="shape"/>
</filter>
</defs>
</svg>
