<svg width="42" height="42" viewBox="0 0 42 42" fill="none" xmlns="http://www.w3.org/2000/svg">
<rect x="1" y="1" width="40" height="40" rx="20" stroke="#CD1719" stroke-width="2"/>
<path d="M22.0318 28.3504C14.1395 28.3504 9.63777 22.8324 9.4502 13.6504H13.4036C13.5335 20.3897 16.448 23.2444 18.7566 23.833V13.6504H22.4791V19.4627C24.7588 19.2126 27.1539 16.5639 27.9619 13.6504H31.6845C31.38 15.1614 30.7731 16.5921 29.9017 17.853C29.0303 19.1139 27.9131 20.1779 26.6201 20.9783C28.0634 21.7097 29.3382 22.745 30.3604 24.0157C31.3826 25.2865 32.129 26.7639 32.5502 28.3504H28.4525C28.0744 26.9724 27.3059 25.7388 26.2433 24.8044C25.1807 23.8699 23.8712 23.276 22.4791 23.0972V28.3504H22.0318Z" fill="#CD1719"/>
</svg>
