<svg width="33" height="32" viewBox="0 0 33 32" fill="none" xmlns="http://www.w3.org/2000/svg">
<path d="M22.9533 15.5067C23.4874 15.5133 24.0174 15.4129 24.512 15.2113C25.0066 15.0098 25.4559 14.7113 25.8333 14.3333L29.6066 10.56C29.855 10.3102 29.9944 9.97225 29.9944 9.62001C29.9944 9.26776 29.855 8.92982 29.6066 8.68001C29.4827 8.55503 29.3352 8.45584 29.1727 8.38815C29.0103 8.32046 28.836 8.28561 28.66 8.28561C28.484 8.28561 28.3097 8.32046 28.1472 8.38815C27.9847 8.45584 27.8373 8.55503 27.7133 8.68001L23.9 12.44C23.776 12.565 23.6286 12.6642 23.4661 12.7319C23.3036 12.7996 23.1293 12.8344 22.9533 12.8344C22.7773 12.8344 22.603 12.7996 22.4405 12.7319C22.2781 12.6642 22.1306 12.565 22.0066 12.44L26.7266 7.73334C26.851 7.60902 26.9496 7.46143 27.0169 7.299C27.0841 7.13657 27.1188 6.96248 27.1188 6.78667C27.1188 6.61086 27.0841 6.43677 27.0169 6.27434C26.9496 6.11191 26.851 5.96432 26.7266 5.84C26.6023 5.71569 26.4547 5.61707 26.2923 5.54979C26.1299 5.48251 25.9558 5.44788 25.78 5.44788C25.6042 5.44788 25.4301 5.48251 25.2676 5.54979C25.1052 5.61707 24.9576 5.71569 24.8333 5.84L20.1266 10.56C19.8783 10.3102 19.7389 9.97225 19.7389 9.62001C19.7389 9.26776 19.8783 8.92982 20.1266 8.68001L23.9 4.90667C24.0243 4.78235 24.1229 4.63477 24.1902 4.47234C24.2575 4.30991 24.2921 4.13582 24.2921 3.96C24.2921 3.78419 24.2575 3.6101 24.1902 3.44767C24.1229 3.28524 24.0243 3.13766 23.9 3.01334C23.7757 2.88902 23.6281 2.79041 23.4656 2.72313C23.3032 2.65584 23.1291 2.62122 22.9533 2.62122C22.7775 2.62122 22.6034 2.65584 22.441 2.72313C22.2786 2.79041 22.131 2.88902 22.0066 3.01334L18.2333 6.78667C17.4842 7.53667 17.0635 8.55334 17.0635 9.61334C17.0635 10.6733 17.4842 11.69 18.2333 12.44L16.5 14.16L5.47332 3.09334L5.33998 3.01334C5.27182 2.95387 5.19549 2.90448 5.11332 2.86667L4.87332 2.77334L4.71332 2.66667H4.61998H4.35332C4.27382 2.65396 4.19281 2.65396 4.11332 2.66667C4.0326 2.69605 3.95632 2.73643 3.88665 2.78667L3.67332 2.92H3.57998L3.49998 3.05334C3.44355 3.12374 3.39441 3.19968 3.35332 3.28C3.31427 3.36131 3.28302 3.44613 3.25998 3.53334C3.25998 3.53334 3.25998 3.62667 3.25998 3.68C2.93643 5.93522 3.14272 8.2348 3.86249 10.3964C4.58226 12.558 5.79571 14.5223 7.40665 16.1333L10.9267 19.64L3.71332 26.84C3.58835 26.964 3.48915 27.1114 3.42146 27.2739C3.35377 27.4364 3.31892 27.6107 3.31892 27.7867C3.31892 27.9627 3.35377 28.137 3.42146 28.2994C3.48915 28.4619 3.58835 28.6094 3.71332 28.7333C3.8379 28.8569 3.98566 28.9547 4.14811 29.021C4.31056 29.0874 4.48451 29.121 4.65998 29.12C4.83546 29.121 5.00941 29.0874 5.17186 29.021C5.33431 28.9547 5.48206 28.8569 5.60665 28.7333L13.7 20.76L17.4733 16.9867L20.14 14.32C20.884 15.072 21.8955 15.4987 22.9533 15.5067ZM12.7533 17.9333L9.24665 14.4133C7.32459 12.465 6.12111 9.92169 5.83332 7.20001L14.6466 16L12.7533 17.9333ZM21.0733 18.6933C20.8222 18.4405 20.481 18.2978 20.1247 18.2965C19.7684 18.2953 19.4262 18.4356 19.1733 18.6867C18.9205 18.9377 18.7777 19.279 18.7765 19.6353C18.7752 19.9916 18.9156 20.3338 19.1666 20.5867L27.5666 28.9867C27.8213 29.2184 28.1558 29.3426 28.5 29.3333C28.6755 29.3344 28.8494 29.3007 29.0119 29.2344C29.1743 29.168 29.3221 29.0702 29.4466 28.9467C29.5716 28.8227 29.6708 28.6753 29.7385 28.5128C29.8062 28.3503 29.841 28.176 29.841 28C29.841 27.824 29.8062 27.6497 29.7385 27.4872C29.6708 27.3248 29.5716 27.1773 29.4466 27.0533L21.0733 18.6933Z" fill="#CD1719"/>
</svg>
