<svg width="33" height="32" viewBox="0 0 33 32" fill="none" xmlns="http://www.w3.org/2000/svg">
<path d="M24.5 15H27.8875C28.072 15.0004 28.253 14.9491 28.4099 14.8519C28.5668 14.7547 28.6932 14.6154 28.775 14.45L31.075 9.85C31.189 9.61962 31.211 9.35453 31.1367 9.10848C31.0625 8.86243 30.8974 8.65384 30.675 8.525L24.5 5" stroke="#CD1719" stroke-width="2" stroke-linecap="round" stroke-linejoin="round"/>
<path d="M8.50026 15H5.11277C4.92822 15.0004 4.74725 14.9491 4.59038 14.8519C4.43351 14.7547 4.30703 14.6154 4.22526 14.45L1.92526 9.85C1.81131 9.61962 1.78924 9.35453 1.86352 9.10848C1.9378 8.86243 2.10287 8.65384 2.32526 8.525L8.50026 5" stroke="#CD1719" stroke-width="2" stroke-linecap="round" stroke-linejoin="round"/>
<path d="M20.5 5C20.5 6.06087 20.0786 7.07828 19.3284 7.82843C18.5783 8.57857 17.5609 9 16.5 9C15.4391 9 14.4217 8.57857 13.6716 7.82843C12.9214 7.07828 12.5 6.06087 12.5 5H8.5V26C8.5 26.2652 8.60536 26.5196 8.79289 26.7071C8.98043 26.8946 9.23478 27 9.5 27H23.5C23.7652 27 24.0196 26.8946 24.2071 26.7071C24.3946 26.5196 24.5 26.2652 24.5 26V5H20.5Z" stroke="#CD1719" stroke-width="2" stroke-linecap="round" stroke-linejoin="round"/>
</svg>
