<svg width="42" height="42" viewBox="0 0 42 42" fill="none" xmlns="http://www.w3.org/2000/svg">
<rect x="1" y="1" width="40" height="40" rx="20" stroke="white" stroke-width="2"/>
<path d="M21 12.3976C23.7831 12.3976 24.1627 12.3976 25.3012 12.3976C26.3133 12.3976 26.8193 12.6506 27.1988 12.7771C27.7048 13.0301 28.0843 13.1566 28.4639 13.5361C28.8434 13.9157 29.0964 14.2952 29.2229 14.8012C29.3494 15.1807 29.4759 15.6867 29.6024 16.6988C29.6024 17.8374 29.6024 18.0904 29.6024 21C29.6024 23.9096 29.6024 24.1627 29.6024 25.3012C29.6024 26.3133 29.3494 26.8193 29.2229 27.1988C28.9699 27.7048 28.8434 28.0843 28.4639 28.4639C28.0843 28.8434 27.7048 29.0964 27.1988 29.2229C26.8193 29.3494 26.3133 29.4759 25.3012 29.6024C24.1627 29.6024 23.9096 29.6024 21 29.6024C18.0904 29.6024 17.8374 29.6024 16.6988 29.6024C15.6867 29.6024 15.1807 29.3494 14.8012 29.2229C14.2952 28.9699 13.9157 28.8434 13.5361 28.4639C13.1566 28.0843 12.9036 27.7048 12.7771 27.1988C12.6506 26.8193 12.5241 26.3133 12.3976 25.3012C12.3976 24.1627 12.3976 23.9096 12.3976 21C12.3976 18.0904 12.3976 17.8374 12.3976 16.6988C12.3976 15.6867 12.6506 15.1807 12.7771 14.8012C13.0301 14.2952 13.1566 13.9157 13.5361 13.5361C13.9157 13.1566 14.2952 12.9036 14.8012 12.7771C15.1807 12.6506 15.6867 12.5241 16.6988 12.3976C17.8374 12.3976 18.2169 12.3976 21 12.3976ZM21 10.5C18.0904 10.5 17.8374 10.5 16.6988 10.5C15.5602 10.5 14.8012 10.753 14.1687 11.006C13.5361 11.259 12.9036 11.6386 12.2711 12.2711C11.6386 12.9036 11.3855 13.4096 11.006 14.1687C10.753 14.8012 10.6265 15.5602 10.5 16.6988C10.5 17.8374 10.5 18.2169 10.5 21C10.5 23.9096 10.5 24.1627 10.5 25.3012C10.5 26.4398 10.753 27.1988 11.006 27.8313C11.259 28.4639 11.6386 29.0964 12.2711 29.7289C12.9036 30.3614 13.4096 30.6145 14.1687 30.994C14.8012 31.247 15.5602 31.3735 16.6988 31.5C17.8374 31.5 18.2169 31.5 21 31.5C23.7831 31.5 24.1627 31.5 25.3012 31.5C26.4398 31.5 27.1988 31.247 27.8313 30.994C28.4639 30.741 29.0964 30.3614 29.7289 29.7289C30.3614 29.0964 30.6145 28.5904 30.994 27.8313C31.247 27.1988 31.3735 26.4398 31.5 25.3012C31.5 24.1627 31.5 23.7831 31.5 21C31.5 18.2169 31.5 17.8374 31.5 16.6988C31.5 15.5602 31.247 14.8012 30.994 14.1687C30.741 13.5361 30.3614 12.9036 29.7289 12.2711C29.0964 11.6386 28.5904 11.3855 27.8313 11.006C27.1988 10.753 26.4398 10.6265 25.3012 10.5C24.1627 10.5 23.9096 10.5 21 10.5Z" fill="white"/>
<path d="M21 15.5602C17.9639 15.5602 15.5602 17.9639 15.5602 21C15.5602 24.0361 17.9639 26.4398 21 26.4398C24.0361 26.4398 26.4398 24.0361 26.4398 21C26.4398 17.9639 24.0361 15.5602 21 15.5602ZM21 24.5422C19.1024 24.5422 17.4578 23.0241 17.4578 21C17.4578 19.1024 18.9759 17.4578 21 17.4578C22.8976 17.4578 24.5422 18.9759 24.5422 21C24.5422 22.8976 22.8976 24.5422 21 24.5422Z" fill="white"/>
<path d="M26.5663 16.6988C27.2649 16.6988 27.8313 16.1324 27.8313 15.4337C27.8313 14.7351 27.2649 14.1687 26.5663 14.1687C25.8676 14.1687 25.3012 14.7351 25.3012 15.4337C25.3012 16.1324 25.8676 16.6988 26.5663 16.6988Z" fill="white"/>
</svg>
