<svg width="32" height="32" viewBox="0 0 32 32" fill="none" xmlns="http://www.w3.org/2000/svg">
<path d="M28.1604 22.5067C27.5761 21.927 26.8273 21.5418 26.016 21.4034C25.2047 21.265 24.3705 21.3802 23.6271 21.7333L22.0938 20.2133C25.2352 16.8234 27.6051 12.7932 29.0404 8.39999C29.3128 7.64101 29.3638 6.82024 29.1875 6.03338C29.0112 5.24652 28.6148 4.52599 28.0446 3.95579C27.4744 3.3856 26.7539 2.98925 25.967 2.81294C25.1802 2.63662 24.3594 2.68763 23.6004 2.95999C19.2072 4.39528 15.177 6.76518 11.7871 9.90666L10.2671 8.37333C10.5829 7.71078 10.7103 6.97413 10.6354 6.24401C10.5604 5.5139 10.2861 4.81847 9.84231 4.23387C9.39855 3.64927 8.8025 3.19803 8.11942 2.92956C7.43634 2.66109 6.69256 2.58573 5.96951 2.71174C5.24645 2.83775 4.57201 3.16026 4.02002 3.64398C3.46802 4.12769 3.05975 4.75396 2.83991 5.45421C2.62007 6.15446 2.59712 6.90169 2.7736 7.61411C2.95007 8.32653 3.31915 8.97666 3.84043 9.49333C4.58986 10.2437 5.60659 10.6657 6.6671 10.6667C7.25856 10.6612 7.84145 10.5245 8.37377 10.2667L9.9071 11.7867C6.76562 15.1766 4.39572 19.2068 2.96043 23.6C2.71044 24.3579 2.67529 25.1702 2.85886 25.9469C3.04244 26.7236 3.43757 27.4342 4.00043 28C4.38159 28.4064 4.83932 28.7334 5.34731 28.9622C5.8553 29.191 6.40352 29.3171 6.96043 29.3333C7.44894 29.3287 7.93413 29.2523 8.40043 29.1067C12.7937 27.6714 16.8238 25.3015 20.2138 22.16L21.7338 23.6933C21.418 24.3559 21.2906 25.0925 21.3655 25.8226C21.4404 26.5528 21.7148 27.2482 22.1586 27.8328C22.6023 28.4174 23.1984 28.8686 23.8814 29.1371C24.5645 29.4056 25.3083 29.4809 26.0314 29.3549C26.7544 29.2289 27.4288 28.9064 27.9808 28.4227C28.5328 27.939 28.9411 27.3127 29.161 26.6124C29.3808 25.9122 29.4037 25.165 29.2273 24.4525C29.0508 23.7401 28.6817 23.09 28.1604 22.5733V22.5067ZM7.61377 7.59999C7.36446 7.85106 7.02563 7.99282 6.67181 7.99407C6.31799 7.99532 5.97817 7.85596 5.7271 7.60666C5.47603 7.35735 5.33427 7.01852 5.33302 6.66471C5.33177 6.31089 5.47113 5.97106 5.72043 5.71999C5.96974 5.46892 6.30857 5.32717 6.66238 5.32592C7.0162 5.32467 7.35603 5.46402 7.6071 5.71332C7.85817 5.96263 7.99992 6.30146 8.00117 6.65528C8.00242 7.0091 7.86307 7.34892 7.61377 7.59999V7.59999ZM24.4138 5.50666C24.6162 5.44001 24.8274 5.40405 25.0404 5.39999C25.2458 5.39832 25.4493 5.43754 25.6394 5.51537C25.8294 5.5932 26.002 5.70809 26.1471 5.85332C26.3644 6.07897 26.5125 6.36212 26.5739 6.66929C26.6354 6.97646 26.6076 7.2948 26.4938 7.58666C25.7894 9.75172 24.8364 11.8278 23.6538 13.7733L18.2271 8.34666C20.1726 7.16406 22.2487 6.21103 24.4138 5.50666V5.50666ZM7.5871 26.4933C7.29633 26.6097 6.97781 26.6382 6.671 26.5753C6.3642 26.5123 6.08261 26.3607 5.86115 26.1393C5.63969 25.9178 5.48809 25.6362 5.42516 25.3294C5.36222 25.0226 5.39071 24.7041 5.5071 24.4133C6.21147 22.2483 7.1645 20.1722 8.3471 18.2267L13.7738 23.6533C11.8282 24.8359 9.75216 25.789 7.5871 26.4933V26.4933ZM16.0004 22.12L9.88043 16C10.4746 15.1936 11.1111 14.4191 11.7871 13.68L18.3338 20.2267C17.59 20.8985 16.8111 21.5305 16.0004 22.12ZM20.2004 18.3333L13.6671 11.7867C14.4106 11.1102 15.1894 10.4738 16.0004 9.87999L22.1338 16.0133C21.5353 16.8201 20.8944 17.5945 20.2138 18.3333H20.2004ZM26.2671 26.3333C26.1437 26.4576 25.9969 26.5564 25.8353 26.624C25.6737 26.6917 25.5003 26.7268 25.3251 26.7274C25.15 26.728 24.9764 26.6941 24.8143 26.6277C24.6522 26.5612 24.5047 26.4634 24.3804 26.34C24.2561 26.2165 24.1573 26.0698 24.0897 25.9082C24.0221 25.7466 23.987 25.5732 23.9864 25.398C23.9857 25.2228 24.0196 25.0492 24.0861 24.8872C24.1526 24.7251 24.2503 24.5776 24.3738 24.4533C24.6236 24.205 24.9615 24.0656 25.3138 24.0656C25.666 24.0656 26.0039 24.205 26.2538 24.4533C26.4899 24.6972 26.6241 25.0219 26.6291 25.3614C26.634 25.7008 26.5094 26.0293 26.2804 26.28L26.2671 26.3333Z" fill="#CD1719"/>
</svg>
