<svg width="42" height="42" viewBox="0 0 42 42" fill="none" xmlns="http://www.w3.org/2000/svg">
<rect x="1" y="1" width="40" height="40" rx="20" stroke="#CD1719" stroke-width="2"/>
<path d="M29.3232 12.6658C27.2488 10.5986 24.4829 9.4502 21.5634 9.4502C15.4939 9.4502 10.5768 14.3502 10.5768 20.3986C10.5768 22.3127 11.1146 24.2268 12.0366 25.8346L10.5 31.5002L16.339 29.9689C17.9524 30.8111 19.7195 31.2705 21.5634 31.2705C27.6329 31.2705 32.55 26.3705 32.55 20.3221C32.4732 17.4893 31.3976 14.733 29.3232 12.6658ZM26.8646 24.3033C26.6341 24.9158 25.5585 25.5283 25.0207 25.6049C24.5598 25.6814 23.9451 25.6814 23.3305 25.5283C22.9463 25.3752 22.4085 25.2221 21.7939 24.9158C19.028 23.7674 17.261 21.0111 17.1073 20.7814C16.9537 20.6283 15.9549 19.3268 15.9549 17.9486C15.9549 16.5705 16.6463 15.958 16.8768 15.6518C17.1073 15.3455 17.4146 15.3455 17.6451 15.3455C17.7988 15.3455 18.0293 15.3455 18.1829 15.3455C18.3366 15.3455 18.5671 15.2689 18.7976 15.8049C19.028 16.3408 19.5659 17.7189 19.6427 17.7955C19.7195 17.9486 19.7195 18.1018 19.6427 18.2549C19.5659 18.408 19.489 18.5611 19.3354 18.7143C19.1817 18.8674 19.028 19.0971 18.9512 19.1736C18.7976 19.3268 18.6439 19.4799 18.7976 19.7096C18.9512 20.0158 19.489 20.858 20.3341 21.6236C21.4098 22.5424 22.2549 22.8486 22.5622 23.0018C22.8695 23.1549 23.0232 23.0783 23.1768 22.9252C23.3305 22.7721 23.8683 22.1596 24.022 21.8533C24.1756 21.5471 24.4061 21.6236 24.6366 21.7002C24.8671 21.7768 26.25 22.4658 26.4805 22.6189C26.7878 22.7721 26.9415 22.8486 27.0183 22.9252C27.0951 23.1549 27.0951 23.6908 26.8646 24.3033Z" fill="#CD1719"/>
</svg>
