<svg width="32" height="32" viewBox="0 0 32 32" fill="none" xmlns="http://www.w3.org/2000/svg">
<path d="M15.9997 14.4C16.5271 14.4 17.0427 14.2436 17.4812 13.9506C17.9197 13.6576 18.2615 13.2411 18.4634 12.7538C18.6652 12.2666 18.718 11.7304 18.6151 11.2131C18.5122 10.6958 18.2582 10.2207 17.8853 9.84773C17.5124 9.47479 17.0372 9.22081 16.5199 9.11792C16.0026 9.01503 15.4665 9.06784 14.9792 9.26967C14.4919 9.4715 14.0754 9.8133 13.7824 10.2518C13.4894 10.6904 13.333 11.2059 13.333 11.7333C13.333 12.4406 13.614 13.1189 14.1141 13.619C14.6142 14.1191 15.2924 14.4 15.9997 14.4ZM15.053 23.6133C15.177 23.7383 15.3244 23.8375 15.4869 23.9052C15.6494 23.9729 15.8237 24.0077 15.9997 24.0077C16.1757 24.0077 16.35 23.9729 16.5124 23.9052C16.6749 23.8375 16.8224 23.7383 16.9463 23.6133L22.3997 18.1467C23.6663 16.8807 24.529 15.2676 24.8787 13.5113C25.2284 11.755 25.0494 9.93442 24.3643 8.27987C23.6792 6.62531 22.5188 5.2111 21.0299 4.21609C19.541 3.22109 17.7905 2.69 15.9997 2.69C14.2089 2.69 12.4583 3.22109 10.9694 4.21609C9.4805 5.2111 8.32012 6.62531 7.63503 8.27987C6.94995 9.93442 6.77094 11.755 7.12064 13.5113C7.47035 15.2676 8.33307 16.8807 9.59967 18.1467L15.053 23.6133ZM9.63967 11.12C9.73077 10.1694 10.033 9.25107 10.5244 8.43217C11.0157 7.61326 11.6837 6.91443 12.4797 6.38668C13.5253 5.70015 14.7488 5.33436 15.9997 5.33436C17.2505 5.33436 18.4741 5.70015 19.5197 6.38668C20.3103 6.91262 20.9745 7.60722 21.4646 8.42053C21.9548 9.23384 22.2585 10.1457 22.3542 11.0904C22.4498 12.0351 22.3349 12.9893 22.0177 13.8844C21.7005 14.7794 21.1889 15.593 20.5197 16.2667L15.9997 20.7867L11.4797 16.2667C10.8097 15.5995 10.2969 14.7914 9.97861 13.9011C9.66032 13.0108 9.54453 12.0607 9.63967 11.12V11.12ZM25.333 26.6667H6.66634C6.31272 26.6667 5.97358 26.8072 5.72353 27.0572C5.47348 27.3073 5.33301 27.6464 5.33301 28C5.33301 28.3536 5.47348 28.6928 5.72353 28.9428C5.97358 29.1929 6.31272 29.3333 6.66634 29.3333H25.333C25.6866 29.3333 26.0258 29.1929 26.2758 28.9428C26.5259 28.6928 26.6663 28.3536 26.6663 28C26.6663 27.6464 26.5259 27.3073 26.2758 27.0572C26.0258 26.8072 25.6866 26.6667 25.333 26.6667Z" fill="#CD1719"/>
</svg>
