<svg width="32" height="32" viewBox="0 0 32 32" fill="none" xmlns="http://www.w3.org/2000/svg">
<path d="M28.0003 5.33329H24.0003V3.99996C24.0003 3.64634 23.8599 3.3072 23.6098 3.05715C23.3598 2.8071 23.0206 2.66663 22.667 2.66663H9.33366C8.98004 2.66663 8.6409 2.8071 8.39085 3.05715C8.1408 3.3072 8.00033 3.64634 8.00033 3.99996V5.33329H4.00033C3.6467 5.33329 3.30756 5.47377 3.05752 5.72382C2.80747 5.97387 2.66699 6.313 2.66699 6.66663V10.6666C2.66699 12.0811 3.2289 13.4377 4.22909 14.4379C5.22928 15.4381 6.58584 16 8.00033 16H10.0537C11.2597 17.3455 12.8857 18.2431 14.667 18.5466V21.3333H13.3337C12.2728 21.3333 11.2554 21.7547 10.5052 22.5049C9.75509 23.255 9.33366 24.2724 9.33366 25.3333V28C9.33366 28.3536 9.47414 28.6927 9.72418 28.9428C9.97423 29.1928 10.3134 29.3333 10.667 29.3333H21.3337C21.6873 29.3333 22.0264 29.1928 22.2765 28.9428C22.5265 28.6927 22.667 28.3536 22.667 28V25.3333C22.667 24.2724 22.2456 23.255 21.4954 22.5049C20.7453 21.7547 19.7279 21.3333 18.667 21.3333H17.3337V18.5466C19.1149 18.2431 20.7409 17.3455 21.947 16H24.0003C25.4148 16 26.7714 15.4381 27.7716 14.4379C28.7718 13.4377 29.3337 12.0811 29.3337 10.6666V6.66663C29.3337 6.313 29.1932 5.97387 28.9431 5.72382C28.6931 5.47377 28.3539 5.33329 28.0003 5.33329ZM8.00033 13.3333C7.29308 13.3333 6.6148 13.0523 6.11471 12.5522C5.61461 12.0521 5.33366 11.3739 5.33366 10.6666V7.99996H8.00033V10.6666C8.00326 11.5756 8.16108 12.4774 8.46699 13.3333H8.00033ZM18.667 24C19.0206 24 19.3598 24.1404 19.6098 24.3905C19.8598 24.6405 20.0003 24.9797 20.0003 25.3333V26.6666H12.0003V25.3333C12.0003 24.9797 12.1408 24.6405 12.3909 24.3905C12.6409 24.1404 12.98 24 13.3337 24H18.667ZM21.3337 10.6666C21.3337 12.0811 20.7718 13.4377 19.7716 14.4379C18.7714 15.4381 17.4148 16 16.0003 16C14.5858 16 13.2293 15.4381 12.2291 14.4379C11.2289 13.4377 10.667 12.0811 10.667 10.6666V5.33329H21.3337V10.6666ZM26.667 10.6666C26.667 11.3739 26.386 12.0521 25.8859 12.5522C25.3858 13.0523 24.7076 13.3333 24.0003 13.3333H23.5337C23.8396 12.4774 23.9974 11.5756 24.0003 10.6666V7.99996H26.667V10.6666Z" fill="#CD1719"/>
</svg>
